<?xml version="1.0" encoding="UTF-8"?>
<svg viewBox="0 0 675 562.5" xmlns="http://www.w3.org/2000/svg">
 <g transform="translate(11.398 -56.794)" fill-rule="evenodd" stroke="#000" stroke-width="3.125">
  <path d="m169.36 466.37 4.5163-8.6798-11.291-0.77624-2.2582 11.644-13.549 7.1274-12.42-7.5508-14.678-5.2926-5.6454-1.9053-7.9036-6.4217-12.42-1.9053 7.9036 10.515-19.194 7.1274-13.549 19.547-1.1291 36.484 32.744 3.7401 10.162 3.7401 12.42 17.289 0.28227 12.42 14.96 11.291-7.6213 3.3873 5.9277 13.549 9.3855 7.3391 4.8692 14.114 15.031 2.8227 8.2564 0.56455 12.702-7.9036 3.6695-23.711 39.8-4.5164 14.96-18.065 7.0568 3.3873 25.122 2.2582 3.6695-2.2582 17.219 1.1291 16.089-6.7745 21.735 9.0327 9.315-15.807 14.678 0.77625-1.1291 8.6798 16.936 0.77625 10.162-25.193 3.3873-18.418 4.5163-0.35284-2.2582-10.515-7.9036 1.9053-11.291-17.289 6.7745-13.902-18.065-0.35284-5.6454-10.515-14.678-1.4819 10.162-10.515-4.5163-12.773-4.5164-8.2564-10.444-2.2582-3.6695 7.9036-22.864-4.5163-9.315 6.7745-3.6695-5.6454-4.7986 4.5164-9.315-2.2582-30.768 7.9036-12.702-14.678-28.509-15.807-2.5404 5.6454-16.089 7.9036-2.5404 9.0327h-8.1859l4.2341 19.194-11.573 6.7745z" fill="#009600"/>
  <path d="m111.78 333.13-10.162 15.948-30.485 2.3993 16.936 17.077-3.9518 12.173 2.8227 12.173 19.759 7.6566-20.888 16.689-2.2582 19.336 3.3873 16.407 18.065 10.762-13.549-11.82 12.42 0.59982 9.0327 10.303 21.453 4.6575 13.972 9.0327 12.843-9.0327 0.42341-10.162 11.114-2.2582-2.4346 12.42 12.244-7.9036-3.5637-13.549-0.93502-6.0688 8.0977-1.5525 2.4522-8.327 17.13-6.0688 1.3232-7.1979 6.9686 2.9638 10.356-13.972-8.8386-2.6816 6.0688-12.42 9.4561-1.1291-4.0929-9.0327 2.2582-11.432-14.678-5.7866-10.162-1.2702-1.1291-9.1738-9.0327-9.1738 5.6454-3.5284-7.9036-4.6575 2.2582-19.336-11.714 2.2582-13.972-12.42-8.327 4.5163-9.4561-14.678-16.231 6.7745-9.4561 10.162h-25.263l11.997 20.324z" fill="#00f"/>
  <path d="m325.18 242.81-19.194 2.7522-15.807 10.656 9.0327 8.3976-5.6454 15.172 7.9036 18.559 18.065 9.5267-11.291 7.2685 7.9036 15.172-21.453-0.63512-21.312 11.776 12.561-17.58-28.086-8.5475-26.957 3.8724-5.5043-5.1603-21.312 11.776-10.021 0.48516-0.98796 9.5178 6.7745 2.7521-5.6454 2.7522 10.162 11.785v8.3976l5.6454 1.6231 5.6454 0.49397 14.316 6.21-2.6198 9.5972 3.0256 8.4682-8.2653 1.6936-7.1362 12.984 8.671 2.8227-8.2653 14.114-7.1362-5.0809 7.2685 6.7745 23.076 15.807 10.021 12.42 27.592-7.9036h10.656l6.1394-3.3873 0.49397 6.7745 9.5267-10.162 23.076 5.6454 8.3976-6.7745 8.3976 2.2582 7.2685 21.453-7.4096 9.0327 11.785 2.2582 9.0327-14.043 6.7745-5.0103 7.9036 2.8933 9.0327-6.1394 4.5163 6.2805 13.549-8.3976-3.3873-8.3976 5.6454-12.914 14.678-1.623 2.2582 8.5387 6.7745-8.3976 1.1291-18.559-13.549 7.4096-6.7745-10.656 6.7745-10.656 1.1291-7.2685-19.688-5.6454 4.0224-22.582 7.4096 2.2582 7.4096-13.549-5.0103-5.6454-9.5267-9.0327-2.7522-6.7745-11.785-6.7745-7.2685-9.0327 2.8933-13.549 11.926 2.2582 0.6351-20.324-18.559-19.194-28.721 5.6454-9.5267-12.42-16.301-4.5164z" fill="#450000" fill-opacity=".99545"/>
  <path d="m58.712 70.622-10.162 16.372 16.936 5.0809-15.807 2.8227-31.614 0.56455-14.678 5.0809-5.6454 14.678 3.3873 15.243 19.194-0.56455-16.936 15.243 19.194-3.9518-9.0327 8.4682 13.549 14.114-13.831 13.549-3.6695 18.065 22.299-14.678 14.396-6.7745-4.7986 14.678 11.009 11.291 14.396-4.5163 33.59 2.2582 11.855-6.7745 3.105-10.162 11.009-4.5163 2.2582-16.372-15.807-7.3391 1.1291-12.984 10.162-2.8227 1.1291-12.984-9.0327-2.8227 11.291-9.5972-9.0327-5.0809-7.9036-6.21-2.2582-8.4682 12.702-6.7745-18.912-5.6454-7.6213-7.9036-12.138-3.3873-9.8795-5.6454-13.831 8.4682z" fill="#f0f"/>
  <path d="m124.2 80.219-14.678 10.867v9.7384l16.936 9.7384-10.162 8.6093 9.0327 7.4802v6.3511l15.807-3.8107 1.1291-6.0688 13.831 2.2582 11.573-2.2582 8.1859 1.1291 12.702 3.3873 13.831-7.9036 16.089-4.5163h13.831l7.0568-10.162 20.888-7.9036-23.993-3.3873-46.575-12.42-9.315-9.0327-12.702 11.291-21.735-3.3873h-21.735z" fill="#00f" fill-opacity=".99545"/>
  <path d="m127.59 131.03-12.42 9.5972-2.2582 10.726 14.678 9.5972v11.855l-13.549 9.5972-0.84681 12.914 10.444-0.63511 12.984 15.666 15.243 12.279-12.984 13.408-28.227 17.501 6.7745 37.824-7.9036 6.21 12.42 18.63 13.549-12.984 13.549-7.3391 13.549 14.114 4.5164-5.0809 12.42 14.114 14.678-1.6936-1.4819 10.162 14.325-2.2582 17.713-10.162 6.4217-1.1291 18.842-9.0327 8.6798-7.9036 3.0344-16.936 7.5508-1.1291 0.77625-6.7745 13.196-6.7745 7.5508-9.0327 16.583-10.162 15.454-3.3873 16.583 2.2582 12.067 14.678 16.583-4.5164-5.6454-14.114 4.5164-9.5972 10.162 8.4682-4.5164-16.372 14.678-7.3391-10.162-22.017 4.5163-7.3391 10.162-3.9518-14.678-2.8227-9.0327-8.4682-9.0327-8.4682-18.065-0.56454-4.5163-2.8227-11.291-5.0809-11.291 1.6936 10.162-8.4681-13.196-9.0327-3.0344-19.194h-16.583l-10.938 6.7745-4.1635 16.936-17.713 1.1291-3.0344-19.194-21.1-9.0327-19.971-2.2582-10.938 3.3873-12.067 10.162-18.842-5.6454-14.325 4.5163-16.583-5.6454 2.611 6.7745-16.583 3.3873z" fill="#009600"/>
  <path d="m239.37 104.89-5.9277 12.763 23.429 10.162 1.9759 15.807h18.912l3.105-18.065 11.009-6.7745 8.7504 1e-5 -0.28227-7.9036 5.0809-7.1178 16.089 1.1291-29.074-13.549-11.009 7.9036-9.8795-6.7745-15.525 5.6454-16.654 6.7745z" fill="#fc0"/>
  <path d="m388.41 215.64-15.807 6.5097 5.6454 17.801-11.291-9.2975-4.5163 9.8969 4.5163 15.542 15.102-0.59765 15.102 17.468 0.84682 22.516-12.702-7.9698-1.4114 17.999 8.4681 8.8584 6.9157 2.4969 3.5284 9.2714 6.9157-6.5358 13.69 8.1423-6.21 6.6003 12.984-0.17424 2.8227 8.8584 2.8227 2.0839 0.56454-12.594 7.3391 0.95485 5.9277-15.981 9.315-1.3033 4.7986-8.0778 0.28227-12.594-4.2341-5.8197 10.444-10.336 3.6695 2.0839 12.702 3.213 5.3632-10.162 0.84681-7.9036-3.6695-6.7745 9.8795-15.807-4.7986-6.7745 8.7504-16.936-9.315-1.1291 8.7504-12.42 11.291-18.93-3.3873-29.091-2.2582-12.155-35.002 0.26484v-14.413l-23.711 7.0394-3.3873-7.6388-16.936-5.3806-3.105 23.711-15.525 3.3873-9.8795 22.582 3.6695 12.42 7.0568 1.1291-8.7504 12.42-24.558-9.0327 10.444 22.582z" fill="#00f"/>
  <path d="m313.89 100.54 10.162 3.9518-19.194-2.6816-6.7745 7.4802 3.3873 8.6093-9.0327 2.9638 16.936-1.2702 1.1291 17.924 13.549 9.8795-11.291 9.5972h14.678l15.807 6.7745 12.42-13.549 5.6454-20.324 9.0327-6.21 16.936-5.0809 4.5164-11.855 10.162-7.3391-1.1291-9.0327-37.26 12.42-30.485-14.678-19.194 12.42z" fill="#ccc"/>
  <path d="m345.5 161.51 11.291-0.84681 18.065 20.606 18.065 1.4114-14.678 4.7986 1.4114 5.6454 21.735 7.9036 11.644-10.444-10.938-3.6695 0.70568-14.114 7.0568-18.065 16.936-3.6695 3.3873-23.993-23.146-8.0447 0.56454-22.723-15.807 8.7504-1.4114 10.162-27.38 12.42-4.7986 18.065-12.702 15.807z" fill="#f00"/>
  <path d="m508.09 145.71 5.6454 41.776-20.324 35.002 11.291-3.3873-10.162 18.065 4.5163 5.6454-10.162 16.936 3.3873 14.678-4.5164 6.7745 7.9036 6.7745 11.361 7.9036 23.781-12.42-1.2702-6.7745h-14.678l23.711-22.582h12.42l47.422-18.065 1.1291-14.678 30.485-9.0327 15.807-22.582-4.5164-23.711 11.291-9.0327-23.781-4.5164-20.676 12.42-11.361-7.9036-28.298-2.2582-18.136-2.2582-2.3287-12.42-10.232 3.3873-7.9742-7.9036-15.878-3.3873-5.8571 13.549z" fill="#9600ff"/>
  <path d="m441.47 333.13-5.6454-1.5525-1.1291 12.314-4.5164-8.0095-10.162-1.2349 4.5164-8.0094-13.549-8.327-7.9036 9.7384 18.348 14.572-9.8795 14.572-8.7504-8.0094-4.2341 29.25 22.582 4.0929-9.0327 19.9 9.0327 7.4802 11.15-5.6454-0.14113 16.936-9.1738 7.9036 4.3752 5.6454-5.7866 14.678 10.021 6.7745-2.3993 12.42 13.408 23.711 13.549-6.3511v-16.513l5.6454-11.997 6.7745-12.314 21.453-13.443 10.162-11.185-29.356-20.218v-37.966l10.726-22.935 24.275-31.967 1.1291-10.867-20.324-17.642 2.3993 4.5163-11.15 1.1291-6.6334-7.9036-11.15 13.549 5.7866 10.162-6.6334 15.807-7.7625 1.1291-10.021 15.807z" fill="#fc0"/>
  <path d="m405.34 443.78-11.291 7.6213-5.6454-8.1859-12.42 7.6213-11.291-2.5404-8.7504 19.194 4.7986 12.42 19.477-1.1291-6.4922 15.807 8.7504 17.571 11.009-2.7522 3.105 10.797 4.2341 4.0224 11.291-13.267 18.065-3.105 7.9036 3.6695 6.1394-10.162-0.63511-12.42-11.926-19.194 0.9703-13.267-10.321-8.7504 4.3576-14.396-6.9333-12.138h-11.573l-8.1859 12.42 5.3632 10.162z" fill="#9600ff"/>
  <path d="m258.52 293.51-7.9036 10.496-25.969 11.625 3.3873 3.7211 31.614-3.0535 27.966 7.9036-16.068 15.807 24.579-10.162 22.321 2.2582-9.0327-17.27 13.549-5.9792-20.324-8.2374-7.9036-22.916 5.9066-13.549-12.159-9.0327-5.5149 9.5972-11.79 3.6695 0.31491 6.9157-8.7178 4.6575-4.2552 13.549z" fill="#fff" fill-opacity=".75"/>
 </g>
</svg>
